<svg id="Layer_1" data-name="Layer 1" xmlns="http://www.w3.org/2000/svg" xmlns:xlink="http://www.w3.org/1999/xlink" viewBox="0 0 396.8 120"><defs><style>.cls-1,.cls-2{fill:none;}.cls-2,.cls-7{clip-path:url(#clip-path);}.cls-3{fill:#dadce0;}.cls-15,.cls-4{fill:#fff;}.cls-5{clip-path:url(#clip-path-4);}.cls-6{fill:#eee;}.cls-8{fill:#db4437;}.cls-9{fill:#0f9d58;}.cls-10{fill:#ffcd40;}.cls-11{fill:#f1f1f1;}.cls-12{fill:#4285f4;}.cls-13,.cls-14{fill:#212121;}.cls-13,.cls-15{fill-opacity:0.05;}.cls-14{fill-opacity:0.02;}.cls-16{fill:#231f20;fill-opacity:0.1;}.cls-17{fill:url(#radial-gradient);}</style><clipPath id="clip-path"><circle class="cls-1" cx="64.98" cy="91.19" r="37.57"/></clipPath><clipPath id="clip-path-4"><path class="cls-1" d="M21.47,22V91.19a6,6,0,0,0,5.94,5.93h75.14a6,6,0,0,0,5.93-5.93V22ZM74.87,37.8H55.09a4,4,0,0,1,0-7.91H74.87a4,4,0,0,1,0,7.91Z"/></clipPath><radialGradient id="radial-gradient" cx="230.71" cy="-6.62" r="450.06" gradientTransform="matrix(0.25, 0, 0, -0.25, -36.45, 20)" gradientUnits="userSpaceOnUse"><stop offset="0" stop-color="#fff" stop-opacity="0.1"/><stop offset="1" stop-color="#fff" stop-opacity="0"/></radialGradient></defs><rect x="3.9" y="1.5" width="389" height="115.84" rx="21.85"/><path class="cls-3" d="M371,2A21.38,21.38,0,0,1,392.4,23.35V95.49A21.38,21.38,0,0,1,371,116.84H25.76A21.38,21.38,0,0,1,4.4,95.49V23.35A21.38,21.38,0,0,1,25.76,2H371m0-1H25.76A22.36,22.36,0,0,0,3.4,23.35V95.49a22.36,22.36,0,0,0,22.36,22.35H371A22.36,22.36,0,0,0,393.4,95.49V23.35A22.36,22.36,0,0,0,371,1Z"/><path class="cls-4" d="M139.29,84a11,11,0,0,1-7.74-18.72,10.51,10.51,0,0,1,7.74-3.13A9.68,9.68,0,0,1,147,65.59l-1.87,1.81a7.06,7.06,0,0,0-5.82-2.66,7.9,7.9,0,0,0-5.76,2.31,8.92,8.92,0,0,0,0,12.09,7.9,7.9,0,0,0,5.76,2.31,8.22,8.22,0,0,0,6.43-3l1.87,1.87A10.12,10.12,0,0,1,144,83,10.88,10.88,0,0,1,139.29,84Z"/><path class="cls-4" d="M152.67,62.64v6.6l-.11,2h.11a4.85,4.85,0,0,1,1.84-1.74,5.34,5.34,0,0,1,2.69-.72,5.05,5.05,0,0,1,4.06,1.64,6.47,6.47,0,0,1,1.4,4.38v8.76H160V75.2q0-4-3.54-4a3.32,3.32,0,0,0-2.72,1.33,4.81,4.81,0,0,0-1.05,3.08v7.91H150V62.64Z"/><path class="cls-4" d="M168.5,83.55h-2.68V69.24h2.57v2.34h.11a3.74,3.74,0,0,1,1.68-1.93,4.78,4.78,0,0,1,2.47-.76,5.22,5.22,0,0,1,2,.35l-1,2.51a4.25,4.25,0,0,0-1.44-.2,3.5,3.5,0,0,0-2.58,1.15,4.16,4.16,0,0,0-1.13,3Z"/><path class="cls-4" d="M176.8,71a7.5,7.5,0,0,1,10.57,0,8.18,8.18,0,0,1,0,10.9,7.52,7.52,0,0,1-10.57,0,8.21,8.21,0,0,1,0-10.9Zm2,9.2a4.51,4.51,0,0,0,6.57,0,5.77,5.77,0,0,0,0-7.51,4.53,4.53,0,0,0-6.57,0,5.77,5.77,0,0,0,0,7.51Z"/><path class="cls-4" d="M191.61,83.55V69.24h2.57v2h.12a5,5,0,0,1,1.88-1.74,5.1,5.1,0,0,1,2.53-.72,4.49,4.49,0,0,1,4.53,2.75,5.58,5.58,0,0,1,5-2.75,4.59,4.59,0,0,1,3.83,1.62,7,7,0,0,1,1.28,4.4v8.76h-2.68V75.2a4.73,4.73,0,0,0-.79-3.07,3,3,0,0,0-2.4-.9,3.18,3.18,0,0,0-2.61,1.34,4.91,4.91,0,0,0-1,3.07v7.91h-2.69V75.2a4.68,4.68,0,0,0-.79-3.07,3,3,0,0,0-2.39-.9,3.21,3.21,0,0,0-2.62,1.34,4.9,4.9,0,0,0-1,3.07v7.91Z"/><path class="cls-4" d="M223,84a6.9,6.9,0,0,1-5.27-2.16,7.67,7.67,0,0,1-2-5.46,7.9,7.9,0,0,1,2-5.38,6.39,6.39,0,0,1,5-2.25,6.63,6.63,0,0,1,5.1,2.08,7.88,7.88,0,0,1,1.91,5.55l0,.49h-11.3a4.82,4.82,0,0,0,1.44,3.42,4.38,4.38,0,0,0,3.11,1.26,3.86,3.86,0,0,0,3.92-2.46l2.39,1a6.36,6.36,0,0,1-2.3,2.79A6.74,6.74,0,0,1,223,84Zm3.86-9.35a3.84,3.84,0,0,0-1.13-2.33,4,4,0,0,0-3.08-1.11,3.86,3.86,0,0,0-2.58.93,4.79,4.79,0,0,0-1.51,2.51Z"/><path class="cls-4" d="M262.24,62.64l-5.58,20.91h-2.74l-4.5-13.78h-.12l-4.5,13.78h-2.74l-5.82-20.91h2.81l4.41,16.45h.12l4.52-13.65h2.51l4.53,13.65h.12l4.18-16.45Z"/><path class="cls-4" d="M269.22,84A6.9,6.9,0,0,1,264,81.86a7.67,7.67,0,0,1-2-5.46,7.9,7.9,0,0,1,2-5.38,6.42,6.42,0,0,1,5-2.25,6.63,6.63,0,0,1,5.1,2.08,7.88,7.88,0,0,1,1.91,5.55l0,.49h-11.3a4.82,4.82,0,0,0,1.44,3.42,4.4,4.4,0,0,0,3.11,1.26,3.86,3.86,0,0,0,3.92-2.46l2.39,1a6.36,6.36,0,0,1-2.3,2.79A6.74,6.74,0,0,1,269.22,84Zm3.86-9.35A3.84,3.84,0,0,0,272,72.34a4,4,0,0,0-3.08-1.11,3.86,3.86,0,0,0-2.58.93,4.79,4.79,0,0,0-1.51,2.51Z"/><path class="cls-4" d="M286,84a6.08,6.08,0,0,1-2.94-.7,5,5,0,0,1-1.94-1.75H281v2h-2.57V62.64h2.69v6.6l-.12,2h.12A5.06,5.06,0,0,1,283,69.47a6.2,6.2,0,0,1,2.94-.7A6.29,6.29,0,0,1,290.75,71a8.32,8.32,0,0,1,0,10.87A6.29,6.29,0,0,1,286,84Zm-.44-2.45a4.24,4.24,0,0,0,3.21-1.42,5.9,5.9,0,0,0,0-7.51,4.39,4.39,0,0,0-6.44,0,6,6,0,0,0,0,7.54A4.32,4.32,0,0,0,285.52,81.57Z"/><path class="cls-4" d="M307.14,84a7.76,7.76,0,0,1-4.46-1.49,6.9,6.9,0,0,1-2.85-4.17l2.46-1a5.63,5.63,0,0,0,1.79,2.91,4.54,4.54,0,0,0,3.06,1.18,4.9,4.9,0,0,0,3-.92,2.93,2.93,0,0,0,1.24-2.5,3.21,3.21,0,0,0-1.24-2.7,13.06,13.06,0,0,0-3.93-1.77A10.36,10.36,0,0,1,302,71.3a4.7,4.7,0,0,1-1.43-3.55,5.17,5.17,0,0,1,1.78-3.91A6.51,6.51,0,0,1,307,62.17a6.75,6.75,0,0,1,4.32,1.33,6.27,6.27,0,0,1,2.17,2.91l-2.46,1a3.62,3.62,0,0,0-1.3-1.84,4.11,4.11,0,0,0-2.67-.85,4.16,4.16,0,0,0-2.64.86,2.65,2.65,0,0,0-1.1,2.15,2.43,2.43,0,0,0,1,2,9.57,9.57,0,0,0,3,1.45,25.4,25.4,0,0,1,2.59,1,12.25,12.25,0,0,1,2.1,1.24,5,5,0,0,1,1.61,1.93,6.24,6.24,0,0,1,.54,2.67,5.74,5.74,0,0,1-.63,2.72,5.12,5.12,0,0,1-1.66,1.9A8.3,8.3,0,0,1,307.14,84Z"/><path class="cls-4" d="M322.39,83.79a4.16,4.16,0,0,1-4.62-4.59V71.69h-2.51V69.24h2.51V64.86h2.69v4.38H324v2.45h-3.5V79c0,1.56.64,2.33,1.93,2.33a2.8,2.8,0,0,0,1.22-.23l.94,2.31A5.53,5.53,0,0,1,322.39,83.79Z"/><path class="cls-4" d="M327.64,71a7.51,7.51,0,0,1,10.58,0,8.21,8.21,0,0,1,0,10.9,7.53,7.53,0,0,1-10.58,0,8.21,8.21,0,0,1,0-10.9Zm2,9.2a4.52,4.52,0,0,0,6.58,0,5.8,5.8,0,0,0,0-7.51,4.54,4.54,0,0,0-6.58,0,5.8,5.8,0,0,0,0,7.51Z"/><path class="cls-4" d="M345.14,83.55h-2.69V69.24H345v2.34h.12a3.66,3.66,0,0,1,1.68-1.93,4.78,4.78,0,0,1,2.47-.76,5.14,5.14,0,0,1,2,.35l-1,2.51a4.22,4.22,0,0,0-1.43-.2,3.52,3.52,0,0,0-2.59,1.15,4.15,4.15,0,0,0-1.12,3Z"/><path class="cls-4" d="M358.66,84a6.9,6.9,0,0,1-5.27-2.16,7.67,7.67,0,0,1-2-5.46,7.9,7.9,0,0,1,2-5.38,6.42,6.42,0,0,1,5-2.25,6.63,6.63,0,0,1,5.1,2.08,7.88,7.88,0,0,1,1.91,5.55l0,.49h-11.3a4.86,4.86,0,0,0,1.44,3.42,4.4,4.4,0,0,0,3.12,1.26,3.85,3.85,0,0,0,3.91-2.46l2.39,1a6.36,6.36,0,0,1-2.3,2.79A6.72,6.72,0,0,1,358.66,84Zm3.86-9.35a3.79,3.79,0,0,0-1.13-2.33,4,4,0,0,0-3.08-1.11,3.86,3.86,0,0,0-2.58.93,4.86,4.86,0,0,0-1.51,2.51Z"/><path class="cls-4" d="M130,51.08l6-15.82h2.3l6,15.82H142l-1.52-4.29h-6.66l-1.54,4.29Zm4.49-6.19h5.26l-2.59-7.14h-.09Z"/><path class="cls-4" d="M147.84,51.08l-4.37-10.83h2.21l3.18,8.4h0l3.23-8.4h2.17l-4.42,10.83Z"/><path class="cls-4" d="M158.83,51.44a4.27,4.27,0,0,1-2.89-1,3.3,3.3,0,0,1-1.16-2.63A3.25,3.25,0,0,1,156.15,45a5.58,5.58,0,0,1,3.39-1,5.87,5.87,0,0,1,2.94.66v-.31a2.44,2.44,0,0,0-.82-1.91,3,3,0,0,0-2-.72,3.14,3.14,0,0,0-1.61.42,2.19,2.19,0,0,0-1,1.15l-1.86-.79a4.23,4.23,0,0,1,1.48-1.8,4.71,4.71,0,0,1,2.92-.83,5,5,0,0,1,3.45,1.21,4.36,4.36,0,0,1,1.37,3.43v6.54h-1.94v-1.5h-.09A4,4,0,0,1,158.83,51.44Zm.33-1.86a3.31,3.31,0,0,0,2.29-.94,3,3,0,0,0,1-2.22,4,4,0,0,0-2.59-.71,3.33,3.33,0,0,0-2.23.64,1.94,1.94,0,0,0-.75,1.51,1.44,1.44,0,0,0,.68,1.26A2.73,2.73,0,0,0,159.16,49.58Z"/><path class="cls-4" d="M168.93,37.53a1.44,1.44,0,1,1,.42-1A1.39,1.39,0,0,1,168.93,37.53Zm0,13.55h-2V40.25h2Z"/><path class="cls-4" d="M173.62,51.08h-2V35.26h2Z"/><path class="cls-4" d="M179.41,51.44a4.27,4.27,0,0,1-2.89-1,3.3,3.3,0,0,1-1.16-2.63A3.25,3.25,0,0,1,176.73,45a5.58,5.58,0,0,1,3.39-1,5.87,5.87,0,0,1,2.94.66v-.31a2.44,2.44,0,0,0-.82-1.91,3,3,0,0,0-2-.72,3.14,3.14,0,0,0-1.61.42,2.19,2.19,0,0,0-1,1.15l-1.86-.79a4.23,4.23,0,0,1,1.48-1.8,4.71,4.71,0,0,1,2.92-.83,5,5,0,0,1,3.45,1.21A4.36,4.36,0,0,1,185,44.54v6.54h-1.94v-1.5H183A4,4,0,0,1,179.41,51.44Zm.33-1.86a3.31,3.31,0,0,0,2.29-.94,3,3,0,0,0,1-2.22,4,4,0,0,0-2.59-.71,3.33,3.33,0,0,0-2.23.64,1.94,1.94,0,0,0-.75,1.51,1.44,1.44,0,0,0,.68,1.26A2.73,2.73,0,0,0,179.74,49.58Z"/><path class="cls-4" d="M193,51.44a4.67,4.67,0,0,1-2.22-.53,3.9,3.9,0,0,1-1.47-1.33h-.08v1.5H187.3V35.26h2v5l-.08,1.5h.08a3.8,3.8,0,0,1,1.47-1.32A4.55,4.55,0,0,1,193,39.9a4.77,4.77,0,0,1,3.63,1.66,6.32,6.32,0,0,1,0,8.22A4.8,4.8,0,0,1,193,51.44Zm-.33-1.86a3.22,3.22,0,0,0,2.43-1.07,4.46,4.46,0,0,0,0-5.68,3.2,3.2,0,0,0-2.43-1.08,3.25,3.25,0,0,0-2.44,1.07,4.56,4.56,0,0,0,0,5.7A3.24,3.24,0,0,0,192.69,49.58Z"/><path class="cls-4" d="M202,51.08h-2V35.26h2Z"/><path class="cls-4" d="M209.23,51.44a5.22,5.22,0,0,1-4-1.64,5.78,5.78,0,0,1-1.54-4.13,6,6,0,0,1,1.49-4.07A4.84,4.84,0,0,1,209,39.9a5,5,0,0,1,3.85,1.57,5.91,5.91,0,0,1,1.45,4.2l0,.37h-8.55a3.64,3.64,0,0,0,1.09,2.59,3.32,3.32,0,0,0,2.35.95,2.93,2.93,0,0,0,3-1.86l1.81.75a4.88,4.88,0,0,1-1.75,2.12A5.11,5.11,0,0,1,209.23,51.44Zm2.92-7.08a2.93,2.93,0,0,0-.85-1.77,3.07,3.07,0,0,0-2.34-.84,2.91,2.91,0,0,0-2,.71,3.54,3.54,0,0,0-1.14,1.9Z"/><path class="cls-4" d="M223.24,37.53a1.44,1.44,0,1,1,.42-1A1.38,1.38,0,0,1,223.24,37.53Zm0,13.55h-2V40.25h2Z"/><path class="cls-4" d="M227.84,40.25v1.5h.09a3.61,3.61,0,0,1,1.39-1.31,4,4,0,0,1,2-.54,3.82,3.82,0,0,1,3.08,1.24,4.94,4.94,0,0,1,1.06,3.31v6.63h-2V44.76c0-2-.89-3-2.67-3a2.52,2.52,0,0,0-2.06,1,3.65,3.65,0,0,0-.79,2.33v6h-2V40.25Z"/><path class="cls-4" d="M247.42,51.26a3.15,3.15,0,0,1-3.49-3.47V42.11H242V40.25h1.9V36.94h2v3.31h2.65v1.86H246v5.52c0,1.18.48,1.77,1.45,1.77a2.31,2.31,0,0,0,.93-.17l.71,1.74A4.15,4.15,0,0,1,247.42,51.26Z"/><path class="cls-4" d="M252.71,35.26v5l-.09,1.5h.09a3.61,3.61,0,0,1,1.39-1.31,4,4,0,0,1,2-.54,3.83,3.83,0,0,1,3.08,1.24,4.94,4.94,0,0,1,1.06,3.31v6.63h-2V44.76c0-2-.89-3-2.67-3a2.52,2.52,0,0,0-2.06,1,3.65,3.65,0,0,0-.79,2.33v6h-2V35.26Z"/><path class="cls-4" d="M267.56,51.44a5.25,5.25,0,0,1-4-1.64A5.81,5.81,0,0,1,262,45.67a5.93,5.93,0,0,1,1.49-4.07,4.81,4.81,0,0,1,3.81-1.7,5,5,0,0,1,3.86,1.57,6,6,0,0,1,1.45,4.2l0,.37h-8.55a3.68,3.68,0,0,0,1.09,2.59,3.34,3.34,0,0,0,2.36.95,2.92,2.92,0,0,0,3-1.86l1.81.75a4.86,4.86,0,0,1-1.74,2.12A5.16,5.16,0,0,1,267.56,51.44Zm2.92-7.08a2.93,2.93,0,0,0-.85-1.77,3,3,0,0,0-2.33-.84,2.92,2.92,0,0,0-2,.71,3.67,3.67,0,0,0-1.14,1.9Z"/><g class="cls-5"><path class="cls-6" d="M21.47,22h87V97.12h-87Z"/></g><g class="cls-5"><path class="cls-4" d="M74.87,29.89H55.09a4,4,0,0,0,0,7.91H74.87a4,4,0,0,0,0-7.91Z"/></g><g class="cls-5"><g class="cls-7"><path class="cls-8" d="M33.37,53.62V99.73H50.19L65,74.11h37.57V53.62Zm0,0V99.73H50.19L65,74.11h37.57V53.62Z"/><path class="cls-9" d="M27.41,128.76H63.17l16.6-16.6V99.73H50.19L27.41,60.66Zm0,0H63.17l16.6-16.6V99.73H50.19L27.41,60.66Z"/><path class="cls-10" d="M65,74.11,79.77,99.73l-16.6,29h39.38V74.11Zm0,0L79.77,99.73l-16.6,29h39.38V74.11Z"/><circle class="cls-11" cx="64.98" cy="91.19" r="17.08"/><circle class="cls-12" cx="64.98" cy="91.19" r="13.66"/></g><g class="cls-5"><path class="cls-13" d="M21.47,22h87V59.55h-87Z"/></g><path class="cls-14" d="M21.47,59.06h87v.49h-87Z"/><path class="cls-15" d="M21.47,59.55h87V60h-87Z"/><path class="cls-14" d="M74.87,37.8H55.09a4,4,0,0,1-3.94-3.71,2,2,0,0,0,0,.25,4,4,0,0,0,4,3.95H74.87a4,4,0,0,0,3.95-3.95,2,2,0,0,0,0-.25A4,4,0,0,1,74.87,37.8ZM21.47,22v.49h87V22Z"/><path class="cls-16" d="M55.09,29.89H74.87a4,4,0,0,1,3.94,3.71c0-.09,0-.17,0-.25a4,4,0,0,0-3.95-4H55.09a4,4,0,0,0-4,4,2.18,2.18,0,0,0,0,.25A4,4,0,0,1,55.09,29.89Zm47.46,66.74H27.41a6,6,0,0,1-5.94-5.94v.5a6,6,0,0,0,5.94,5.93h75.14a6,6,0,0,0,5.93-5.93v-.5A6,6,0,0,1,102.55,96.63Z"/><path class="cls-17" d="M21.47,22V91.19a6,6,0,0,0,5.94,5.93h75.14a6,6,0,0,0,5.93-5.93V22ZM74.87,37.8H55.09a4,4,0,0,1,0-7.91H74.87a4,4,0,0,1,0,7.91Z"/><path class="cls-1" d="M17.52,12.09h94.92V107H17.52Z"/></g></svg>